<svg width="1536" height="2048" xmlns="http://www.w3.org/2000/svg" preserveAspectRatio="xMidYMid meet">

 <g>
  <title>background</title>
  <rect fill="none" id="canvas_background" height="402" width="582" y="-1" x="-1"/>
 </g>
 <g>
  <title>Layer 1</title>
  <path fill="#ffffff" stroke="null" id="svg_1" d="m763.423096,592.960268c-81.222832,0 -156.134177,20.030964 -224.734036,60.093717s-122.931164,94.394057 -162.993916,162.993916s-60.093717,143.511204 -60.093717,224.734036s20.030964,156.134177 60.093717,224.734036s94.394057,122.931164 162.993916,162.993916s143.511204,60.093717 224.734036,60.093717s156.134177,-20.030964 224.734036,-60.093717s122.931164,-94.394057 162.993916,-162.993916s60.093717,-143.511204 60.093717,-224.734036s-20.030964,-156.134177 -60.093717,-224.734036s-94.394057,-122.931164 -162.993916,-162.993916s-143.511204,-60.093717 -224.734036,-60.093717zm632.218826,447.821669c0,114.699148 -28.26298,220.480553 -84.789764,317.344216s-133.221184,173.558062 -230.084846,230.084846s-202.645067,84.789764 -317.344216,84.789764s-220.480553,-28.26298 -317.344216,-84.789764s-173.558062,-133.221184 -230.084846,-230.084846s-84.789764,-202.645067 -84.789764,-317.344216s28.26298,-220.480553 84.789764,-317.344216s133.221184,-173.558062 230.084846,-230.084846s202.645067,-84.789764 317.344216,-84.789764s220.480553,28.26298 317.344216,84.789764s173.558062,133.221184 230.084846,230.084846s84.789764,202.645067 84.789764,317.344216z"/>
 </g>
</svg>