<svg width="1188" height="2048" xmlns="http://www.w3.org/2000/svg" preserveAspectRatio="xMidYMid meet">

 <g>
  <title>background</title>
  <rect fill="none" id="canvas_background" height="402" width="582" y="-1" x="-1"/>
 </g>
 <g>
  <title>Layer 1</title>
  <path stroke="null" fill="#ffffff" id="svg_1" d="m1081.346605,1337.568736c0,23.105211 -7.894655,42.743817 -23.684809,58.917551l-115.040503,117.835102c-15.790155,16.173734 -34.963008,24.260168 -57.520252,24.260168s-41.730097,-8.086434 -57.520252,-24.260168l-248.690499,-254.731765l-248.690499,254.731765c-15.790155,16.173734 -34.963008,24.260168 -57.520252,24.260168s-41.730097,-8.086434 -57.520252,-24.260168l-115.040503,-117.835102c-15.790155,-16.173734 -23.684809,-35.81234 -23.684809,-58.917551s7.894655,-42.743817 23.684809,-58.917551l248.690499,-254.731765l-248.690499,-254.731765c-15.790155,-16.173734 -23.684809,-35.81234 -23.684809,-58.917551s7.894655,-42.743817 23.684809,-58.917551l115.040503,-117.835102c15.790155,-16.173734 34.963008,-24.260168 57.520252,-24.260168s41.730097,8.086434 57.520252,24.260168l248.690499,254.731765l248.690499,-254.731765c15.790155,-16.173734 34.963008,-24.260168 57.520252,-24.260168s41.730097,8.086434 57.520252,24.260168l115.040503,117.835102c15.790155,16.173734 23.684809,35.81234 23.684809,58.917551s-7.894655,42.743817 -23.684809,58.917551l-248.690499,254.731765l248.690499,254.731765c15.790155,16.173734 23.684809,35.81234 23.684809,58.917551z"/>
 </g>
</svg>